P2
# CREATOR: BLAKE, THE MASTER OF C
60 68
255
255
255
255
255
255
255
255
255
255
255
255
255
255
255
255
255
255
255
255
255
255
255
255
255
255
255
255
255
255
255
255
255
255
255
255
255
255
255
255
255
255
255
255
255
255
255
255
255
255
255
255
255
255
255
255
255
255
255
255
255
255
255
255
255
255
255
255
255
255
255
255
255
255
255
255
255
255
255
255
255
254
254
250
237
228
222
221
221
225
231
242
253
254
254
254
254
254
255
255
248
254
254
254
254
254
254
255
255
255
255
255
255
255
255
255
255
255
255
255
255
255
255
255
255
255
255
255
255
255
255
255
255
255
255
255
255
254
246
236
229
243
237
189
123
77
53
47
53
74
112
169
214
235
252
254
254
254
254
236
197
242
253
254
254
254
254
254
255
255
255
255
255
255
255
255
255
255
255
255
255
255
255
255
255
255
255
255
255
255
255
255
255
255
255
247
232
211
167
119
125
192
135
53
34
26
22
21
22
24
29
37
59
140
216
250
254
254
242
159
81
181
216
223
224
221
221
222
226
235
248
254
254
254
254
254
254
255
255
255
255
255
255
255
255
255
255
255
255
255
255
255
255
243
217
166
95
51
40
54
178
207
62
27
20
18
17
17
17
18
18
19
22
38
96
222
250
254
241
165
49
41
50
64
61
49
47
56
82
132
191
230
251
254
254
254
254
254
254
255
255
255
255
255
255
255
255
255
255
255
255
251
216
144
65
41
29
22
20
47
180
212
103
35
19
17
17
17
17
17
17
17
17
19
45
162
242
253
253
219
99
56
26
24
23
22
35
38
34
33
54
130
236
252
254
254
254
254
254
254
255
255
255
255
255
255
255
255
255
255
251
200
75
40
25
21
19
18
18
35
95
183
178
95
49
27
18
17
17
17
17
17
17
17
35
154
240
253
254
250
230
169
37
20
19
35
89
96
78
28
38
81
213
249
254
254
254
254
254
254
255
255
255
255
255
255
255
255
255
251
222
129
48
39
29
26
29
41
61
76
44
55
91
200
147
63
24
17
17
17
17
17
17
20
71
207
247
253
254
253
211
125
33
19
17
19
32
76
149
81
136
146
181
218
249
254
254
254
254
254
255
255
255
255
255
255
255
254
233
190
113
52
79
98
78
80
110
169
205
159
46
29
72
198
98
38
23
17
17
17
17
28
44
87
191
241
252
254
254
218
92
39
21
17
17
17
29
69
157
175
165
61
45
85
207
248
254
254
254
254
255
255
255
255
255
255
251
203
113
50
33
23
25
37
74
107
142
166
189
184
77
30
56
146
70
27
19
17
17
17
28
113
183
225
243
251
254
254
242
139
41
22
18
17
17
27
106
169
141
102
82
62
33
37
114
236
252
254
254
254
255
255
255
255
255
252
191
64
34
23
19
18
18
19
24
29
36
57
58
53
55
76
93
114
139
66
32
18
17
17
44
195
238
249
252
254
254
254
205
55
24
18
17
17
17
38
135
160
118
111
114
103
66
53
86
231
251
254
254
254
255
255
255
255
255
231
117
43
25
24
22
22
24
28
37
50
79
109
33
37
131
217
230
232
231
183
75
24
17
17
50
220
248
253
254
254
254
236
121
34
20
17
17
17
17
23
54
77
84
86
89
98
121
168
137
237
252
254
254
254
255
255
255
255
255
246
179
73
43
70
75
81
90
116
157
201
197
119
35
45
155
226
242
246
226
86
33
19
17
17
49
213
248
254
254
254
253
194
52
23
18
17
17
17
17
17
23
79
169
223
230
232
235
241
236
250
253
244
245
253
255
255
255
255
240
185
80
32
46
153
186
194
192
187
183
172
136
98
49
36
66
165
212
232
219
74
26
18
17
17
45
185
245
253
254
254
226
102
32
19
17
17
17
17
17
17
67
205
238
248
251
251
252
252
252
253
221
171
182
223
250
255
255
236
146
54
29
20
21
34
40
42
42
41
40
39
47
44
66
95
118
185
237
247
230
140
51
21
17
17
35
132
238
252
254
246
161
45
22
18
17
17
17
17
17
35
152
236
250
253
254
254
254
254
254
234
106
48
58
122
230
255
247
187
57
26
19
17
17
19
20
20
20
29
41
62
83
48
144
211
221
228
243
210
191
177
113
29
18
17
21
69
216
249
249
189
58
36
20
17
17
17
17
17
17
44
193
244
253
254
254
254
254
254
254
223
62
45
77
120
194
255
248
203
87
55
37
20
17
17
17
17
31
105
169
203
118
43
97
151
161
182
200
82
47
40
32
20
17
17
17
40
141
232
209
89
71
94
27
18
19
17
17
17
17
45
186
245
253
254
254
254
254
254
254
225
77
48
29
40
89
240
211
213
205
176
103
32
19
17
17
21
68
213
234
178
54
25
28
47
147
232
225
121
45
24
19
17
17
17
17
19
58
182
233
210
219
179
47
28
55
25
18
17
18
35
130
231
251
254
254
254
254
254
254
226
85
40
51
73
114
158
79
98
82
45
31
20
17
17
17
18
56
197
220
125
37
20
18
50
205
244
249
217
119
53
21
17
17
17
17
17
23
70
194
237
248
223
115
107
178
70
23
22
53
28
55
170
243
253
250
252
254
254
254
231
99
53
168
220
224
150
81
35
27
21
19
17
17
17
17
17
23
73
181
167
66
42
28
44
150
204
212
207
176
108
29
18
17
17
17
17
17
24
66
184
228
245
205
190
195
152
67
95
182
87
60
100
231
247
213
211
249
254
244
187
60
48
156
236
247
188
69
29
20
18
17
17
17
17
17
17
17
24
42
73
129
132
96
74
63
46
59
79
47
32
20
17
17
17
17
17
17
17
23
51
128
171
65
45
72
192
216
195
200
199
216
220
235
212
111
82
231
224
156
55
29
22
63
219
248
235
175
81
58
49
41
38
36
36
34
19
17
17
20
24
47
128
205
209
102
43
98
146
57
29
21
19
19
20
26
37
48
21
18
21
31
38
25
21
33
103
155
56
46
72
160
170
143
93
38
71
205
135
52
51
63
23
59
219
248
252
244
232
224
204
172
158
149
146
96
28
18
17
17
17
20
47
137
177
61
47
86
170
156
62
50
57
63
73
109
167
175
55
25
18
19
19
18
17
21
45
69
28
22
24
50
115
45
36
62
124
200
187
107
182
182
46
86
219
235
255
253
251
250
248
243
241
237
197
54
23
18
17
17
17
17
21
35
60
96
168
223
237
170
72
112
160
185
189
206
210
172
126
76
51
36
30
18
17
17
20
23
19
17
18
40
129
48
97
136
60
66
151
220
232
164
39
48
158
197
255
254
254
254
254
253
253
252
222
97
59
47
41
41
44
51
58
82
152
219
239
249
220
61
30
30
36
40
50
88
84
56
129
197
172
110
72
24
18
36
19
18
17
17
17
42
150
99
128
45
42
61
94
213
235
167
67
60
147
227
255
254
254
254
254
254
254
254
250
234
222
195
176
178
197
221
202
189
188
201
213
238
210
77
48
26
27
48
25
27
26
42
123
106
64
34
26
19
36
127
33
19
17
17
17
39
145
99
41
38
135
214
222
228
249
242
216
191
233
247
255
254
254
254
254
254
254
254
254
252
250
247
244
244
237
191
89
47
42
43
66
166
229
215
142
80
111
148
34
20
20
62
73
35
25
20
18
17
55
186
51
21
17
17
17
45
169
144
35
46
176
240
249
250
253
253
249
246
251
253
255
254
254
254
254
254
254
254
254
254
254
253
253
233
158
56
30
23
24
22
23
57
165
238
238
231
203
92
28
18
60
126
41
22
18
17
17
23
97
196
50
21
17
17
23
73
211
185
40
46
142
239
252
254
254
254
254
253
254
255
255
254
254
254
254
254
254
254
254
254
254
254
233
144
50
26
35
56
68
59
35
26
75
225
249
242
180
55
27
64
111
62
25
18
17
17
17
47
168
180
41
20
17
17
22
58
174
196
81
109
163
241
252
254
254
254
248
241
246
254
255
255
254
254
254
254
254
254
254
254
254
240
153
49
25
55
141
216
226
210
114
30
50
198
247
252
224
115
103
168
54
27
19
28
34
33
54
124
197
109
31
19
17
17
17
22
57
154
210
231
240
251
254
254
254
240
183
159
186
227
255
255
255
255
255
255
254
254
254
254
249
174
53
25
63
174
230
247
250
238
144
34
46
191
246
253
250
237
230
197
63
24
28
78
133
143
186
188
128
42
22
17
17
17
17
17
22
54
155
215
216
244
253
254
246
168
56
40
58
142
255
255
255
255
255
255
255
255
254
252
191
60
27
61
177
235
249
253
254
217
88
28
56
211
248
254
254
252
251
223
125
31
20
53
193
197
126
56
35
22
18
17
17
17
17
18
49
50
45
70
73
200
248
254
219
97
41
24
42
109
255
250
250
254
254
254
254
254
248
190
63
28
55
165
234
249
253
254
221
133
40
28
110
231
251
254
254
254
216
132
44
22
18
38
127
125
44
25
20
18
17
17
17
17
18
52
169
149
61
45
59
185
245
240
142
67
59
30
70
135
249
203
213
249
254
254
254
227
169
57
27
45
147
230
249
253
242
203
103
42
24
76
209
246
253
253
231
194
83
39
23
18
17
24
68
121
33
20
17
20
17
17
17
17
17
22
48
94
131
122
139
213
218
192
75
70
28
20
39
114
213
81
123
209
226
223
199
97
46
25
35
122
224
248
239
211
141
55
32
29
80
204
243
247
226
194
95
49
29
21
18
17
17
18
44
128
60
41
53
53
21
17
17
18
20
18
41
58
52
101
205
138
58
48
33
35
29
50
56
97
198
50
35
54
77
56
45
30
22
28
104
219
246
212
131
55
37
38
57
111
215
242
220
173
75
46
30
22
19
17
17
17
17
17
32
107
180
175
208
150
42
20
19
45
59
43
162
193
100
97
216
155
68
39
50
98
121
205
164
136
209
80
28
23
25
22
21
19
24
93
216
245
201
78
38
36
65
139
213
231
239
188
75
43
27
22
19
18
17
17
17
17
17
17
18
47
148
206
239
218
108
52
41
148
172
96
211
241
233
231
247
238
175
72
67
195
230
236
205
224
243
191
67
24
18
17
17
20
87
213
244
219
86
33
41
127
215
235
247
242
167
57
29
21
18
17
17
17
17
17
17
17
17
17
17
20
38
89
189
213
197
168
101
206
238
232
246
252
251
251
252
209
68
35
71
168
234
250
248
249
253
239
143
33
19
17
17
53
200
236
243
172
45
30
108
220
245
251
251
192
57
27
19
17
17
17
17
17
17
17
17
17
17
17
17
17
19
26
40
48
83
212
230
245
251
251
253
254
254
254
245
181
54
76
180
198
218
249
253
254
255
221
72
26
32
19
25
92
221
199
224
139
35
50
195
243
252
254
226
94
31
20
17
17
17
17
17
17
17
17
17
17
17
17
17
17
17
18
20
40
120
232
249
253
254
254
254
254
254
254
253
220
90
34
50
100
225
250
254
255
248
190
45
36
105
52
30
90
178
108
177
137
37
66
219
249
253
249
183
47
22
18
17
17
17
17
17
17
17
17
17
17
24
29
32
36
40
48
61
130
222
248
253
254
254
254
254
254
254
254
254
247
189
77
116
212
246
253
254
255
241
170
39
48
178
165
61
33
45
48
150
166
38
51
178
218
227
205
110
32
19
17
17
17
17
17
17
17
17
19
44
57
93
119
133
152
180
212
222
235
248
253
254
254
254
254
254
254
254
254
254
254
246
231
234
247
252
254
254
255
244
187
51
42
140
222
176
67
45
67
185
205
64
27
43
68
79
53
33
20
17
17
17
17
17
17
17
17
21
83
197
222
230
232
200
200
210
236
248
251
253
254
254
254
254
254
254
254
254
254
254
254
253
251
252
253
254
254
254
255
253
226
118
60
91
218
239
215
170
186
237
237
162
60
26
24
25
22
19
17
17
17
17
17
17
17
17
19
74
210
242
249
251
223
87
50
73
170
224
250
254
254
254
254
254
254
254
254
254
254
254
254
254
254
254
254
254
254
254
255
255
251
235
213
199
219
248
249
243
245
251
252
236
174
69
52
50
51
22
17
17
17
17
17
17
17
17
35
128
229
250
253
250
186
47
24
25
47
119
216
250
254
254
254
254
254
254
254
255
255
254
254
254
254
254
254
254
254
254
255
255
254
252
249
247
249
253
254
253
253
254
254
252
244
228
216
216
195
53
21
17
17
17
17
17
17
17
19
57
185
245
253
228
101
31
19
18
21
38
108
219
250
254
254
254
254
254
254
255
255
255
254
254
254
254
254
254
254
254
255
255
254
254
254
253
254
254
254
254
254
254
254
254
245
220
217
223
222
120
32
19
17
17
17
17
17
17
17
24
79
217
244
179
47
22
18
17
17
19
41
127
229
251
254
254
254
254
254
254
255
255
254
254
254
254
254
254
254
254
255
255
254
254
254
254
254
254
254
254
254
254
254
246
165
63
60
106
193
193
80
32
19
17
17
17
17
17
17
17
40
135
218
104
31
19
17
17
17
17
20
52
162
243
253
254
254
254
254
254
255
255
255
254
254
254
254
254
254
254
255
255
254
254
254
254
254
254
254
254
254
254
254
229
85
31
24
29
63
155
170
78
41
21
17
17
17
17
17
17
19
61
190
61
24
18
17
17
17
17
17
21
67
213
249
254
254
254
254
254
254
255
255
255
254
254
254
254
255
255
255
255
254
254
254
254
254
254
254
254
254
254
254
222
53
23
18
18
23
37
56
86
94
34
19
17
17
17
17
17
17
43
134
43
21
17
17
17
17
17
17
17
36
129
238
252
254
254
254
254
254
254
255
255
255
255
255
255
255
255
255
255
254
254
254
254
254
254
254
254
254
254
254
221
49
21
17
17
17
19
22
26
28
24
18
17
17
17
17
17
17
30
82
58
31
25
18
17
17
17
17
17
24
84
231
251
254
254
254
254
254
254
255
255
255
255
255
255
255
255
255
255
255
254
254
254
254
254
254
254
254
254
255
223
68
24
18
32
48
29
19
18
18
18
17
17
17
17
17
17
17
24
69
122
101
85
45
20
17
17
17
17
21
80
230
251
254
254
254
254
254
254
255
255
255
255
255
255
255
255
255
255
255
255
255
255
255
255
255
255
255
255
255
231
117
30
31
99
173
101
41
20
17
17
17
17
17
17
17
17
17
25
102
219
231
221
146
33
19
17
17
17
26
114
234
251
254
254
254
254
254
254
255
255
255
255
255
255
255
255
255
255
255
255
255
255
255
255
255
255
255
255
255
247
190
53
23
43
129
204
129
55
23
17
17
17
17
17
17
17
17
45
165
239
243
216
137
34
19
17
17
17
58
187
244
253
254
254
254
254
254
254
255
255
255
255
255
255
255
255
255
255
255
255
255
255
255
255
255
255
255
255
255
254
230
106
28
21
61
215
228
177
75
47
30
18
17
17
17
19
45
117
226
233
172
92
47
23
18
17
17
43
151
233
250
254
254
254
254
254
254
254
255
255
255
255
255
255
255
255
255
255
255
255
255
255
255
255
255
255
255
255
255
254
227
74
25
18
43
165
240
243
224
178
107
58
49
48
51
82
167
226
235
151
53
30
22
18
17
21
45
122
225
248
253
254
254
254
254
254
254
255
255
255
255
255
255
255
255
255
255
255
255
255
255
255
255
255
255
255
255
255
255
254
222
57
23
17
29
101
233
250
250
244
235
225
213
211
217
228
240
247
203
58
26
19
18
17
37
84
162
226
247
253
254
254
254
254
254
254
254
255
255
255
255
255
255
255
255
255
255
255
255
255
255
255
255
255
255
255
255
255
255
254
226
95
27
18
18
56
207
248
253
253
252
251
249
248
249
251
252
243
166
40
21
17
17
33
114
182
234
248
253
254
254
254
254
254
254
254
255
255
255
255
255
255
255
255
255
255
255
255
255
255
255
255
255
255
255
255
255
255
255
254
246
184
46
20
17
35
126
226
251
254
254
254
254
254
254
254
254
242
170
57
22
17
17
19
30
72
208
247
253
254
254
254
254
254
254
254
255
255
255
255
255
255
255
255
255
255
255
255
255
255
255
255
255
255
255
255
255
255
255
254
253
221
76
27
18
23
64
156
213
247
253
254
254
254
254
254
254
253
233
153
63
44
33
19
18
32
105
201
230
246
253
254
254
254
254
254
255
255
255
255
255
255
255
255
255
255
255
255
255
255
255
255
255
255
255
255
255
255
255
255
252
213
57
41
21
51
69
74
80
214
249
254
254
254
254
254
254
254
252
240
216
173
120
46
20
19
28
53
121
187
216
229
240
249
254
254
254
254
254
254
255
255
255
255
255
255
255
255
255
255
255
255
255
255
255
255
255
255
255
255
254
225
103
73
63
129
45
63
53
192
246
253
254
254
254
254
254
254
254
253
250
244
223
142
33
19
18
27
31
44
53
101
156
197
229
251
254
254
254
254
254
254
255
255
255
255
255
255
255
255
255
255
255
255
255
255
255
255
255
255
254
246
197
114
104
80
54
105
70
207
248
253
254
254
254
254
254
254
254
254
254
253
250
211
75
54
30
45
41
46
48
31
50
55
123
238
252
254
254
254
254
254
254
255
255
255
255
255
255
255
255
255
255
255
255
255
255
255
255
255
254
253
231
171
191
107
116
201
155
236
251
254
254
254
254
254
254
254
254
254
254
254
254
248
228
199
66
49
110
79
129
47
87
31
72
230
251
254
254
254
254
254
254
255
255
255
255
255
255
255
255
255
255
255
255
255
255
255
255
255
254
254
252
244
238
204
231
244
241
250
254
254
254
254
254
254
254
254
254
254
254
254
254
254
251
230
132
83
142
51
91
45
54
52
130
236
252
254
254
254
254
254
254
255
255
255
255
255
255
255
255
255
255
255
255
255
255
255
255
255
254
254
254
253
252
248
251
253
253
254
254
254
254
254
254
254
254
254
254
254
254
254
254
254
254
251
227
179
183
94
146
116
104
152
226
249
253
254
254
254
254
254
254
255
255
255
255
255
255
255
255
255
255
255
255
255
255
255
255
255
255
254
254
254
254
254
254
254
254
254
254
254
254
254
254
254
255
255
254
254
254
254
254
254
254
254
251
245
244
233
235
217
219
237
249
253
254
254
254
254
254
254
254
255
255
255
255
255
255
255
255
255
255
255
255
255
255
255
255
255
255
255
255
255
255
255
255
255
255
255
255
255
255
255
255
255
255
255
255
255
255
255
255
255
255
255
254
253
253
251
251
248
248
251
253
255
255
255
255
255
255
255
255
255
255
255
255
