P2
# CREATOR: BLAKE, THE MASTER OF C
60 68
255
0
0
0
0
0
0
0
0
0
0
0
0
0
0
0
0
0
0
0
0
0
0
0
0
0
0
0
0
0
0
0
0
0
0
0
0
0
0
0
0
0
0
0
0
0
0
0
0
0
0
0
0
0
0
0
0
0
0
0
0
0
0
0
0
0
0
0
0
0
0
0
0
0
0
0
0
0
0
0
0
0
0
4
17
26
32
33
33
29
23
12
1
0
0
0
0
0
0
0
6
0
0
0
0
0
0
0
0
0
0
0
0
0
0
0
0
0
0
0
0
0
0
0
0
0
0
0
0
0
0
0
0
0
0
0
0
0
8
18
25
11
17
65
131
177
201
207
201
180
142
85
40
19
2
0
0
0
0
18
57
12
1
0
0
0
0
0
0
0
0
0
0
0
0
0
0
0
0
0
0
0
0
0
0
0
0
0
0
0
0
0
0
0
0
7
22
43
87
135
129
62
119
201
220
228
232
233
232
230
225
217
195
114
38
4
0
0
12
95
173
73
38
31
30
33
33
32
28
19
6
0
0
0
0
0
0
0
0
0
0
0
0
0
0
0
0
0
0
0
0
0
0
11
37
88
159
203
214
200
76
47
192
227
234
236
237
237
237
236
236
235
232
216
158
32
4
0
13
89
205
213
204
190
193
205
207
198
172
122
63
24
3
0
0
0
0
0
0
0
0
0
0
0
0
0
0
0
0
0
0
3
38
110
189
213
225
232
234
207
74
42
151
219
235
237
237
237
237
237
237
237
237
235
209
92
12
1
1
35
155
198
228
230
231
232
219
216
220
221
200
124
18
2
0
0
0
0
0
0
0
0
0
0
0
0
0
0
0
0
3
54
179
214
229
233
235
236
236
219
159
71
76
159
205
227
236
237
237
237
237
237
237
237
219
100
14
1
0
4
24
85
217
234
235
219
165
158
176
226
216
173
41
5
0
0
0
0
0
0
0
0
0
0
0
0
0
0
0
3
32
125
206
215
225
228
225
213
193
178
210
199
163
54
107
191
230
237
237
237
237
237
237
234
183
47
7
1
0
1
43
129
221
235
237
235
222
178
105
173
118
108
73
36
5
0
0
0
0
0
0
0
0
0
0
0
0
0
21
64
141
202
175
156
176
174
144
85
49
95
208
225
182
56
156
216
231
237
237
237
237
226
210
167
63
13
2
0
0
36
162
215
233
237
237
237
225
185
97
79
89
193
209
169
47
6
0
0
0
0
0
0
0
0
0
0
3
51
141
204
221
231
229
217
180
147
112
88
65
70
177
224
198
108
184
227
235
237
237
237
226
141
71
29
11
3
0
0
12
115
213
232
236
237
237
227
148
85
113
152
172
192
221
217
140
18
2
0
0
0
0
0
0
0
0
2
63
190
220
231
235
236
236
235
230
225
218
197
196
201
199
178
161
140
115
188
222
236
237
237
210
59
16
5
2
0
0
0
49
199
230
236
237
237
237
216
119
94
136
143
140
151
188
201
168
23
3
0
0
0
0
0
0
0
0
23
137
211
229
230
232
232
230
226
217
204
175
145
221
217
123
37
24
22
23
71
179
230
237
237
204
34
6
1
0
0
0
18
133
220
234
237
237
237
237
231
200
177
170
168
165
156
133
86
117
17
2
0
0
0
0
0
0
0
0
8
75
181
211
184
179
173
164
138
97
53
57
135
219
209
99
28
12
8
28
168
221
235
237
237
205
41
6
0
0
0
1
60
202
231
236
237
237
237
237
237
231
175
85
31
24
22
19
13
18
4
1
10
9
1
0
0
0
0
14
69
174
222
208
101
68
60
62
67
71
82
118
156
205
218
188
89
42
22
35
180
228
236
237
237
209
69
9
1
0
0
28
152
222
235
237
237
237
237
237
237
187
49
16
6
3
3
2
2
2
1
33
83
72
31
4
0
0
18
108
200
225
234
233
220
214
212
212
213
214
215
207
210
188
159
136
69
17
7
24
114
203
233
237
237
219
122
16
2
0
8
93
209
232
236
237
237
237
237
237
219
102
18
4
1
0
0
0
0
0
20
148
206
196
132
24
0
7
67
197
228
235
237
237
235
234
234
234
225
213
192
171
206
110
43
33
26
11
44
63
77
141
225
236
237
233
185
38
5
5
65
196
218
234
237
237
237
237
237
237
210
61
10
1
0
0
0
0
0
0
31
192
209
177
134
60
0
6
51
167
199
217
234
237
237
237
237
223
149
85
51
136
211
157
103
93
72
54
172
207
214
222
234
237
237
237
214
113
22
45
165
183
160
227
236
235
237
237
237
237
209
68
9
1
0
0
0
0
0
0
29
177
206
225
214
165
14
43
41
49
78
151
222
235
237
237
233
186
41
20
76
200
229
226
207
107
22
29
133
209
230
235
237
237
237
237
235
196
72
21
44
35
75
207
226
199
229
236
237
236
219
124
23
3
0
0
0
0
0
0
28
169
214
203
181
140
96
175
156
172
209
223
234
237
237
237
236
198
57
34
129
217
234
236
204
49
10
5
37
135
201
233
237
237
237
237
237
231
184
60
17
6
31
139
147
76
184
231
232
201
226
199
84
11
1
4
2
0
0
0
23
155
201
86
34
30
104
173
219
227
233
235
237
237
237
237
237
231
181
73
87
188
212
226
210
104
50
42
47
78
146
225
236
237
237
237
237
237
230
188
70
26
9
49
64
59
102
187
159
72
167
194
154
23
7
41
43
5
0
10
67
194
206
98
18
7
66
185
225
234
236
237
237
237
237
237
237
237
230
212
181
125
122
158
180
191
208
195
175
207
222
234
237
237
237
237
237
237
237
231
203
126
83
189
209
182
62
38
59
54
55
38
34
19
42
143
172
23
30
98
199
225
232
191
35
6
19
79
173
196
205
213
216
218
218
220
235
237
237
234
230
207
126
49
45
152
211
156
108
197
225
233
235
235
234
228
217
206
233
236
233
223
216
229
233
221
151
99
198
208
182
94
84
111
161
216
183
49
119
202
203
191
231
195
35
6
2
10
22
30
50
82
96
105
108
158
226
236
237
237
237
234
207
117
77
193
207
168
84
98
192
204
197
191
181
145
87
79
199
229
236
235
235
236
237
233
209
185
226
232
230
204
139
209
218
192
130
54
67
147
72
72
208
168
35
19
0
1
3
4
6
11
13
17
57
200
231
236
237
237
237
237
233
219
194
158
86
31
17
84
182
142
94
69
65
48
44
82
128
178
203
218
224
236
237
237
234
231
235
237
236
214
125
206
157
118
194
188
103
34
22
90
215
206
96
57
0
0
0
0
0
1
1
2
32
157
195
207
213
213
210
203
196
172
102
35
15
5
34
193
224
224
218
214
204
166
170
198
125
57
82
144
182
230
236
218
235
236
237
237
237
212
104
155
126
209
212
193
160
41
19
87
187
194
107
27
0
0
0
0
0
0
0
0
4
20
32
59
78
76
57
33
52
65
66
53
41
16
44
177
206
228
227
206
229
227
228
212
131
148
190
220
228
235
218
127
221
235
237
237
237
215
109
155
213
216
119
40
32
26
5
12
38
63
21
7
0
0
0
0
0
0
0
0
0
2
4
7
10
10
17
63
165
207
212
211
188
88
25
39
112
174
143
106
220
234
234
192
181
219
229
234
236
237
199
68
203
233
237
237
237
209
85
110
219
208
78
14
5
4
1
1
5
8
3
1
0
0
0
0
0
0
0
0
0
0
0
1
1
21
96
198
224
231
230
232
231
197
89
16
16
23
51
162
226
236
194
128
213
232
236
237
237
231
157
58
204
233
237
237
231
181
43
69
214
208
112
15
2
0
0
0
0
1
0
0
0
0
0
0
0
0
0
0
0
0
0
0
21
110
204
228
219
198
186
195
219
228
179
29
5
12
74
199
227
190
143
192
229
236
237
237
237
207
86
74
213
234
237
237
232
196
80
58
173
145
91
13
2
0
0
0
6
13
8
0
0
0
0
0
0
0
0
0
0
0
0
14
101
205
229
199
113
38
28
44
140
224
204
56
7
2
30
139
151
86
200
227
235
226
220
221
200
130
57
145
223
235
237
237
237
232
197
100
44
23
14
3
0
0
0
14
71
95
68
27
0
0
0
0
0
0
0
0
0
0
5
80
201
229
191
80
24
7
4
16
110
220
208
63
8
1
4
17
24
57
191
230
226
176
121
111
68
66
126
212
232
237
237
237
237
237
232
200
99
39
38
10
1
0
8
86
198
214
196
112
0
0
0
0
0
0
0
0
0
2
63
194
227
193
77
19
5
1
0
37
166
226
198
43
6
0
0
2
3
31
129
223
234
201
61
57
128
198
219
232
236
237
237
237
237
236
205
204
209
184
181
54
6
0
35
157
213
230
212
145
0
4
4
0
0
0
0
0
6
64
191
226
199
89
20
5
1
0
33
121
214
226
144
23
3
0
0
0
38
122
210
232
236
216
127
129
210
229
234
236
237
237
237
237
236
202
85
105
193
209
195
69
9
14
112
187
195
224
184
119
5
51
41
5
0
0
0
27
85
197
227
209
107
24
5
1
12
51
151
212
230
178
45
8
1
1
23
60
171
215
231
236
237
230
186
133
221
234
237
234
237
237
237
237
237
232
206
160
123
132
115
41
36
62
179
184
226
234
215
140
41
173
131
45
28
31
55
157
208
229
219
132
30
6
15
43
113
199
222
225
174
50
11
7
28
60
159
205
225
233
236
237
237
236
210
126
194
213
201
201
233
237
237
236
234
236
213
196
202
153
49
116
196
206
221
219
225
204
198
157
56
204
219
200
177
198
209
224
232
226
150
35
8
42
123
199
217
216
197
143
39
12
34
81
179
208
224
232
235
237
237
237
237
237
222
147
74
79
46
104
212
234
235
209
195
211
92
61
154
157
38
99
186
215
204
156
133
49
90
118
45
174
226
231
229
232
233
235
230
161
38
9
53
176
216
218
189
115
41
23
15
66
179
211
227
232
235
236
237
237
237
237
237
237
236
207
106
48
15
36
146
202
213
106
82
158
43
13
21
23
7
16
79
182
187
59
24
18
49
30
11
63
187
230
236
237
237
234
167
41
10
35
168
221
213
127
39
19
7
12
87
197
225
233
236
237
237
237
237
237
237
237
237
237
237
234
216
165
65
41
57
86
153
48
16
22
8
2
3
3
2
45
186
219
183
86
20
4
6
5
1
15
111
221
235
237
237
201
54
18
11
82
209
224
146
34
9
3
3
62
197
227
235
237
237
237
237
237
237
237
237
237
237
237
237
237
235
228
214
206
171
42
24
9
3
3
1
0
0
0
9
73
200
178
74
56
36
5
1
0
0
33
182
228
222
235
229
162
33
55
30
115
219
204
59
11
2
0
28
160
223
234
237
237
237
237
237
237
237
237
237
237
237
237
237
237
237
236
234
214
134
22
5
1
0
0
0
0
0
0
1
34
164
220
204
154
29
4
0
0
6
64
209
218
149
202
224
164
76
146
77
117
217
188
35
5
1
5
71
207
232
236
237
237
237
237
237
237
237
237
237
237
230
225
222
218
214
206
193
124
32
6
1
0
0
0
0
0
0
0
0
7
65
177
138
42
8
1
0
0
13
84
215
206
76
89
193
221
209
206
104
88
216
203
76
36
27
49
144
222
235
237
237
237
237
237
237
237
237
235
210
197
161
135
121
102
74
42
32
19
6
1
0
0
0
0
0
0
0
0
0
0
8
23
20
7
2
0
0
0
10
67
203
212
114
32
78
187
209
187
69
49
190
227
211
186
175
201
221
234
237
237
237
237
237
237
237
237
233
171
57
32
24
22
54
54
44
18
6
3
1
0
0
0
0
0
0
0
0
0
0
0
1
3
2
1
0
0
0
0
1
28
136
194
163
36
15
39
84
68
17
17
92
194
228
230
229
232
235
237
237
237
237
237
237
237
237
235
180
44
12
5
3
31
167
204
181
84
30
4
0
0
0
0
0
0
0
0
0
0
0
0
0
0
0
0
0
0
0
0
0
3
19
41
55
35
6
5
11
9
3
2
18
80
185
202
204
203
232
237
237
237
237
237
237
237
237
219
126
25
4
1
4
68
207
230
229
207
135
38
4
0
0
0
0
0
0
0
0
0
0
0
0
0
0
0
0
0
0
0
0
0
2
5
7
5
1
0
1
1
0
0
2
10
26
38
38
59
201
233
237
237
237
237
237
237
237
235
197
69
9
1
26
153
223
235
236
233
216
146
35
4
0
0
0
0
0
0
0
0
0
0
0
0
0
0
0
0
0
0
0
0
0
0
1
0
0
0
0
0
0
0
0
9
34
37
31
32
134
222
235
237
237
237
237
237
237
237
230
175
37
10
75
207
232
236
237
237
235
213
127
25
3
0
0
0
0
0
0
0
0
0
0
0
0
0
0
0
0
0
0
0
0
0
0
0
0
0
0
0
0
0
8
89
191
194
148
61
61
174
222
235
237
237
237
237
237
237
237
214
119
36
150
223
235
237
237
237
237
234
202
92
11
1
0
0
0
0
0
0
0
0
0
0
0
0
0
0
0
0
0
0
0
0
0
0
0
0
0
0
0
0
25
169
223
230
225
191
99
84
176
213
233
237
237
237
237
237
237
235
193
64
193
230
236
237
237
237
237
237
233
187
41
5
0
0
0
0
0
0
0
0
0
0
0
0
0
0
0
0
0
0
0
0
0
0
0
0
0
0
0
0
32
201
231
236
236
231
217
198
168
160
220
235
237
237
237
237
237
237
211
120
211
233
237
237
237
237
237
237
237
218
125
16
2
0
0
0
0
0
0
0
0
0
0
0
0
0
0
0
0
0
0
0
0
0
0
0
0
0
0
0
33
205
233
237
237
237
235
232
228
226
230
236
237
237
237
237
237
237
224
172
196
223
229
236
237
237
237
237
237
230
170
23
3
0
0
0
0
0
0
0
0
0
0
0
0
0
0
0
0
0
0
0
0
0
0
0
0
0
0
0
31
186
230
236
222
206
225
235
236
236
236
237
237
237
237
237
237
237
230
185
132
153
169
209
234
237
237
237
237
233
174
24
3
0
0
0
0
0
0
0
0
0
0
0
0
0
0
0
0
0
0
0
0
0
0
0
0
0
0
0
23
137
224
223
155
81
153
213
234
237
237
237
237
237
237
237
237
237
229
152
35
23
33
108
221
235
237
237
237
228
140
20
3
0
0
0
0
0
0
0
0
0
0
0
0
0
0
0
0
0
0
0
0
0
0
0
0
0
0
0
7
64
201
231
211
125
50
125
199
231
237
237
237
237
237
237
237
237
209
89
15
11
38
117
220
235
237
237
237
196
67
10
1
0
0
0
0
0
0
0
0
0
0
0
0
0
0
0
0
0
0
0
0
0
0
0
0
0
0
0
0
24
148
226
233
193
39
26
77
179
207
224
236
237
237
237
235
209
137
28
21
82
162
207
231
236
237
237
211
103
21
4
0
0
0
0
0
0
0
0
0
0
0
0
0
0
0
0
0
0
0
0
0
0
0
0
0
0
0
0
0
27
180
229
236
211
89
14
11
30
76
147
196
205
206
203
172
87
28
19
103
201
224
232
236
237
233
209
132
29
6
1
0
0
0
0
0
0
0
0
0
0
0
0
0
0
0
0
0
0
0
0
0
0
0
0
0
0
0
0
0
32
197
231
237
225
153
21
4
4
10
19
29
41
43
37
26
14
7
51
196
228
235
236
237
217
170
92
28
7
1
0
0
0
0
0
0
0
0
0
0
0
0
0
0
0
0
0
0
0
0
0
0
0
0
0
0
0
0
0
0
28
159
227
236
236
198
47
6
1
1
2
3
5
6
5
3
2
11
88
214
233
237
237
221
140
72
20
6
1
0
0
0
0
0
0
0
0
0
0
0
0
0
0
0
0
0
0
0
0
0
0
0
0
0
0
0
0
0
0
0
8
70
208
234
237
219
128
28
3
0
0
0
0
0
0
0
0
12
84
197
232
237
237
235
224
182
46
7
1
0
0
0
0
0
0
0
0
0
0
0
0
0
0
0
0
0
0
0
0
0
0
0
0
0
0
0
0
0
0
0
1
33
178
227
236
231
190
98
41
7
1
0
0
0
0
0
0
1
21
101
191
210
221
235
236
222
149
53
24
8
1
0
0
0
0
0
0
0
0
0
0
0
0
0
0
0
0
0
0
0
0
0
0
0
0
0
0
0
0
0
2
41
197
213
233
203
185
180
174
40
5
0
0
0
0
0
0
0
2
14
38
81
134
208
234
235
226
201
133
67
38
25
14
5
0
0
0
0
0
0
0
0
0
0
0
0
0
0
0
0
0
0
0
0
0
0
0
0
0
0
0
29
151
181
191
125
209
191
201
62
8
1
0
0
0
0
0
0
0
1
4
10
31
112
221
235
236
227
223
210
201
153
98
57
25
3
0
0
0
0
0
0
0
0
0
0
0
0
0
0
0
0
0
0
0
0
0
0
0
0
0
8
57
140
150
174
200
149
184
47
6
1
0
0
0
0
0
0
0
0
0
1
4
43
179
200
224
209
213
208
206
223
204
199
131
16
2
0
0
0
0
0
0
0
0
0
0
0
0
0
0
0
0
0
0
0
0
0
0
0
0
1
23
83
63
147
138
53
99
18
3
0
0
0
0
0
0
0
0
0
0
0
0
6
26
55
188
205
144
175
125
207
167
223
182
24
3
0
0
0
0
0
0
0
0
0
0
0
0
0
0
0
0
0
0
0
0
0
0
0
0
0
2
10
16
50
23
10
13
4
0
0
0
0
0
0
0
0
0
0
0
0
0
0
3
24
122
171
112
203
163
209
200
202
124
18
2
0
0
0
0
0
0
0
0
0
0
0
0
0
0
0
0
0
0
0
0
0
0
0
0
0
0
1
2
6
3
1
1
0
0
0
0
0
0
0
0
0
0
0
0
0
0
0
0
3
27
75
71
160
108
138
150
102
28
5
1
0
0
0
0
0
0
0
0
0
0
0
0
0
0
0
0
0
0
0
0
0
0
0
0
0
0
0
0
0
0
0
0
0
0
0
0
0
0
0
0
0
0
0
0
0
0
0
0
0
3
9
10
21
19
37
35
17
5
1
0
0
0
0
0
0
0
0
0
0
0
0
0
0
0
0
0
0
0
0
0
0
0
0
0
0
0
0
0
0
0
0
0
0
0
0
0
0
0
0
0
0
0
0
0
0
0
0
0
0
0
1
1
3
3
6
6
3
1
0
0
0
0
0
0
0
0
0
0
0
0
